<?xml version="1.0" standalone="no"?>
<!DOCTYPE svg PUBLIC "-//W3C//DTD SVG 20010904//EN"
 "http://www.w3.org/TR/2001/REC-SVG-20010904/DTD/svg10.dtd">
<svg version="1.0" xmlns="http://www.w3.org/2000/svg"
 width="151.000000pt" height="151.000000pt" viewBox="0 0 151.000000 151.000000"
 preserveAspectRatio="xMidYMid meet">
<metadata>
Created by potrace 1.11, written by Peter Selinger 2001-2013
</metadata>
<g transform="translate(0.000000,151.000000) scale(0.100000,-0.100000)"
fill="#000000" stroke="none">
<path d="M107 1404 c-10 -10 -7 -95 3 -119 6 -14 9 -2 9 43 l1 62 77 0 c42 0
74 2 72 4 -8 7 -155 16 -162 10z"/>
<path d="M436 1401 c-6 -8 314 -3 323 5 2 2 -68 4 -157 4 -88 0 -163 -4 -166
-9z"/>
<path d="M1155 1400 c110 -4 210 -8 223 -9 22 -1 22 -3 22 -143 0 -79 5 -150
10 -158 6 -10 10 41 10 153 l0 167 -232 -2 -233 -2 200 -6z"/>
<path d="M153 1133 c4 -124 7 -397 7 -605 l0 -378 298 1 c163 1 365 5 447 9
110 5 34 7 -287 8 l-438 2 0 585 0 585 580 0 580 0 1 -192 c1 -113 4 -183 9
-168 4 14 8 105 9 203 l1 177 -607 0 -606 0 6 -227z"/>
<path d="M102 673 l-2 -573 639 0 c416 0 642 4 646 10 4 7 -208 10 -629 10
l-636 0 -1 493 c-1 270 -5 524 -9 562 -4 39 -8 -188 -8 -502z"/>
<path d="M673 1071 c-121 -33 -163 -63 -143 -101 8 -16 9 -30 1 -52 -6 -17
-11 -55 -11 -85 0 -29 -7 -70 -15 -90 -8 -19 -15 -42 -15 -49 0 -8 7 -14 15
-14 8 0 16 -10 17 -22 2 -42 3 -47 11 -54 4 -4 7 -20 7 -34 0 -42 23 -56 71
-43 37 10 41 9 56 -13 8 -13 15 -39 16 -59 l1 -35 129 0 c118 0 129 1 123 17
-13 33 -25 160 -18 185 4 14 22 38 40 53 100 84 105 264 10 352 -61 57 -180
75 -295 44z m204 -38 c28 -26 2 -65 -35 -52 -24 9 -29 38 -10 57 13 13 28 12
45 -5z m-207 -54 c0 -12 -7 -19 -19 -19 -22 0 -34 23 -19 38 15 15 38 3 38
-19z m53 -11 c7 -21 -4 -38 -23 -38 -25 0 -35 18 -20 35 15 18 37 19 43 3z
m97 1 c0 -6 9 -9 20 -6 22 6 36 -9 32 -35 -2 -11 3 -18 12 -18 21 0 21 -19 1
-27 -9 -3 -15 -15 -13 -27 2 -17 -2 -20 -20 -19 -13 2 -25 -4 -28 -12 -7 -18
-31 -20 -36 -3 -3 7 -13 13 -24 13 -12 0 -19 7 -19 19 0 11 -6 21 -13 24 -17
5 -15 29 3 36 8 3 14 15 12 28 -2 19 2 22 21 20 12 -2 22 2 22 7 0 6 7 11 15
11 8 0 15 -5 15 -11z m155 -90 c1 -8 5 -13 11 -12 5 1 10 -14 10 -33 0 -21 -5
-34 -13 -34 -7 0 -13 -4 -13 -9 0 -14 -54 -7 -70 9 -19 19 -23 70 -5 70 7 0
15 6 18 13 7 17 62 14 62 -4z"/>
<path d="M1341 523 l-1 -352 -87 -4 -88 -3 91 -2 91 -2 7 37 c9 57 6 635 -4
658 -5 12 -9 -126 -9 -332z"/>
<path d="M1405 459 c4 -195 9 -356 11 -358 2 -2 4 154 4 347 0 244 -3 353 -11
358 -8 5 -9 -91 -4 -347z"/>
</g>
</svg>
